<svg width="20" height="20" viewBox="0 0 20 20" fill="none" xmlns="http://www.w3.org/2000/svg">
<path d="M7.3349 0.0166016C9.21083 0.0166016 11.0099 0.790832 12.3364 2.16897C13.6629 3.54711 14.4081 5.41627 14.4081 7.36525C14.4081 9.18545 13.7661 10.8587 12.7105 12.1475L13.0043 12.4528H13.864L19.3049 18.1056L17.6726 19.8014L12.2317 14.1486V13.2555L11.9379 12.9502C10.6974 14.0469 9.08687 14.7139 7.3349 14.7139C5.45898 14.7139 3.65988 13.9397 2.33341 12.5615C1.00693 11.1834 0.261719 9.31423 0.261719 7.36525C0.261719 5.41627 1.00693 3.54711 2.33341 2.16897C3.65988 0.790832 5.45898 0.0166016 7.3349 0.0166016ZM7.3349 2.27772C4.61445 2.27772 2.43808 4.53885 2.43808 7.36525C2.43808 10.1917 4.61445 12.4528 7.3349 12.4528C10.0554 12.4528 12.2317 10.1917 12.2317 7.36525C12.2317 4.53885 10.0554 2.27772 7.3349 2.27772Z" fill="#1C304F"/>
</svg>
